<svg width="50" height="50" viewBox="0 0 50 50" fill="none" xmlns="http://www.w3.org/2000/svg">
<path fill-rule="evenodd" clip-rule="evenodd" d="M25 35.9344C18.9609 35.9344 14.0656 31.0391 14.0656 25C14.0656 18.9609 18.9609 14.0656 25 14.0656C31.0391 14.0656 35.9344 18.9609 35.9344 25C35.9344 31.0391 31.0391 35.9344 25 35.9344ZM25 10.9281C17.2281 10.9281 10.9281 17.2281 10.9281 25C10.9281 32.7719 17.2281 39.0719 25 39.0719C32.7719 39.0719 39.0719 32.7719 39.0719 25C39.0719 17.2281 32.7719 10.9281 25 10.9281ZM11.5781 36.2328L8.29531 39.5172C7.69063 40.1219 7.69063 41.1016 8.29531 41.7047C8.89844 42.3094 9.87813 42.3094 10.4828 41.7047L13.7672 38.4219C14.3703 37.8172 14.3703 36.8375 13.7672 36.2328C13.1625 35.6297 12.1828 35.6297 11.5781 36.2328ZM48.4375 23.4375H43.75C42.8859 23.4375 42.1875 24.1359 42.1875 25C42.1875 25.8641 42.8859 26.5625 43.75 26.5625H48.4375C49.3016 26.5625 50 25.8641 50 25C50 24.1359 49.3016 23.4375 48.4375 23.4375ZM39.3625 37.1531C38.7531 36.5438 37.7641 36.5438 37.1531 37.1531C36.5438 37.7641 36.5438 38.7531 37.1531 39.3625L40.4672 42.6766C41.0781 43.2875 42.0672 43.2875 42.6766 42.6766C43.2875 42.0688 43.2875 41.0781 42.6766 40.4672L39.3625 37.1531ZM25 42.1875C24.1359 42.1875 23.4375 42.8859 23.4375 43.75V48.4375C23.4375 49.3016 24.1359 50 25 50C25.8641 50 26.5625 49.3016 26.5625 48.4375V43.75C26.5625 42.8859 25.8641 42.1875 25 42.1875ZM25 7.8125C25.8641 7.8125 26.5625 7.11406 26.5625 6.25V1.5625C26.5625 0.698438 25.8641 0 25 0C24.1359 0 23.4375 0.698438 23.4375 1.5625V6.25C23.4375 7.11406 24.1359 7.8125 25 7.8125ZM10.6375 12.8469C11.2469 13.4563 12.2359 13.4563 12.8469 12.8469C13.4563 12.2359 13.4563 11.2469 12.8469 10.6375L9.53281 7.32344C8.92188 6.7125 7.93281 6.7125 7.32344 7.32344C6.7125 7.93281 6.7125 8.92188 7.32344 9.53281L10.6375 12.8469ZM40.0328 12.1547L43.3172 8.87344C43.9203 8.26719 43.9203 7.2875 43.3172 6.68281C42.7125 6.07969 41.7328 6.07969 41.1266 6.68281L37.8453 9.96719C37.2406 10.5719 37.2406 11.5516 37.8453 12.1547C38.4484 12.7609 39.4281 12.7609 40.0328 12.1547ZM6.25 23.4375H1.5625C0.698438 23.4375 0 24.1359 0 25C0 25.8641 0.698438 26.5625 1.5625 26.5625H6.25C7.11406 26.5625 7.8125 25.8641 7.8125 25C7.8125 24.1359 7.11406 23.4375 6.25 23.4375Z" fill="#454545"/>
</svg>
