<svg width="38" height="50" viewBox="0 0 38 50" fill="none" xmlns="http://www.w3.org/2000/svg">
<path fill-rule="evenodd" clip-rule="evenodd" d="M19 23.4375C16.3764 23.4375 14.25 21.3391 14.25 18.75C14.25 16.1609 16.3764 14.0625 19 14.0625C21.6236 14.0625 23.75 16.1609 23.75 18.75C23.75 21.3391 21.6236 23.4375 19 23.4375ZM19 10.9375C14.6284 10.9375 11.0833 14.4344 11.0833 18.75C11.0833 23.0656 14.6284 26.5625 19 26.5625C23.3716 26.5625 26.9167 23.0656 26.9167 18.75C26.9167 14.4344 23.3716 10.9375 19 10.9375ZM19 45.3125C16.3669 45.3266 3.16667 25.2828 3.16667 18.75C3.16667 10.1219 10.2552 3.125 19 3.125C27.7447 3.125 34.8333 10.1219 34.8333 18.75C34.8333 25.1953 21.5919 45.3266 19 45.3125ZM19 0C8.50725 0 0 8.39531 0 18.75C0 26.5906 15.8412 50.0172 19 50C22.1097 50.0172 38 26.4844 38 18.75C38 8.39531 29.4928 0 19 0Z" fill="#454545"/>
</svg>
