<svg width="102" height="56" viewBox="0 0 102 56" fill="none" xmlns="http://www.w3.org/2000/svg">
<g clip-path="url(#clip0)">
<path d="M15.6551 21.9568C15.5697 21.8999 15.342 21.786 14.972 21.6153C14.6304 21.416 14.1607 21.231 13.5629 21.0602C12.9652 20.8894 12.2962 20.804 11.5561 20.804C10.019 20.804 8.70963 21.1883 7.62795 21.9568C6.54628 22.6969 6.0766 23.7786 6.21893 25.2019C6.30433 26.1981 6.80247 26.9667 7.71335 27.5075C8.62423 28.0199 9.97633 28.5465 11.7696 29.0873C13.3637 29.5997 14.6446 30.0836 15.6124 30.5391C16.5802 30.966 17.4057 31.6065 18.0889 32.4605C18.772 33.286 19.1136 34.3534 19.1136 35.6628C19.1136 37.3707 18.4732 38.794 17.1922 39.9326C15.9398 41.0712 14.0895 41.6405 11.6415 41.6405C10.019 41.6405 8.61 41.37 7.41447 40.8292C6.2474 40.2599 5.35074 39.5198 4.72451 38.6089C4.12674 37.698 3.7994 36.6875 3.74247 35.5774H5.57847C5.74926 36.9153 6.38972 37.9685 7.49986 38.737C8.63847 39.4771 10.019 39.8472 11.6415 39.8472C13.1217 39.8472 14.4169 39.4913 15.527 38.7797C16.6372 38.0681 17.1922 37.0433 17.1922 35.7055C17.1922 34.7946 16.9218 34.0403 16.381 33.4425C15.8401 32.8447 15.1712 32.3751 14.3742 32.0335C13.6056 31.6634 12.5524 31.2649 11.2146 30.838C9.7913 30.3825 8.63847 29.9698 7.75605 29.5997C6.90209 29.2012 6.14777 28.6604 5.49307 27.9772C4.83837 27.294 4.45409 26.4401 4.34023 25.4153C4.31177 25.273 4.29754 25.0738 4.29754 24.8176C4.29754 23.8782 4.55372 22.9816 5.06609 22.1276C5.57847 21.2452 6.37549 20.5193 7.45716 19.95C8.5673 19.3807 9.93363 19.0961 11.5561 19.0961C12.4386 19.0961 13.2356 19.1957 13.9472 19.395C14.6588 19.5658 15.2139 19.7508 15.6124 19.95C16.0109 20.1493 16.2529 20.2774 16.3383 20.3343L15.6551 21.9568ZM24.3938 19.6085H29.9872L29.1332 21.4445H24.3938V35.3639C24.3938 36.5879 24.6357 37.5842 25.1197 38.3527C25.632 39.0928 26.4433 39.6479 27.5534 40.018L26.9984 41.5551C25.4043 41.0996 24.2515 40.3738 23.5398 39.3775C22.8282 38.3812 22.4724 37.0433 22.4724 35.3639V11.1116H24.3938V19.6085ZM32.983 27.5075C32.983 24.8033 33.6662 22.7396 35.0325 21.3164C36.4273 19.8647 38.4199 19.1388 41.0102 19.1388C43.4867 19.1388 45.4223 19.8931 46.8171 21.4018C48.2119 22.882 48.9093 24.9172 48.9093 27.5075V33.1436C48.9093 35.5347 48.2546 37.513 46.9452 39.0786C45.6358 40.6442 43.6575 41.427 41.0102 41.427C38.3629 41.427 36.3561 40.6442 34.9898 39.0786C33.652 37.4846 32.983 35.5062 32.983 33.1436V27.5075ZM34.9044 33.4425C34.9044 35.2643 35.431 36.7729 36.4842 37.9685C37.5659 39.1355 39.0746 39.7191 41.0102 39.7191C42.9458 39.7191 44.426 39.1355 45.4508 37.9685C46.4755 36.8014 46.9879 35.2927 46.9879 33.4425V27.4648C46.9879 25.2446 46.4328 23.5936 45.3227 22.5119C44.241 21.4302 42.8035 20.8894 41.0102 20.8894C39.16 20.8894 37.6798 21.4302 36.5696 22.5119C35.4595 23.5651 34.9044 25.2161 34.9044 27.4648V33.4425ZM54.8476 21.3164C56.2708 19.9216 58.1495 19.2242 60.4837 19.2242C61.2807 19.2242 62.3481 19.3523 63.686 19.6085L63.1736 21.4018C62.2343 21.1171 61.2949 20.9748 60.3556 20.9748C58.8754 20.9748 57.5945 21.2594 56.5128 21.8287C55.4596 22.398 54.933 23.1808 54.933 24.1771V41H53.0116V19.6085H54.933L54.8476 21.3164ZM64.1186 26.5255C64.1186 24.2198 64.8303 22.4265 66.2535 21.1456C67.7052 19.8646 69.6124 19.2242 71.975 19.2242C74.3376 19.2242 76.1736 19.8646 77.483 21.1456C78.8209 22.398 79.4898 24.1487 79.4898 26.3974V31.5211L66.04 32.247V35.3212C66.04 36.8014 66.5097 37.9258 67.4491 38.6943C68.4169 39.4344 69.6693 39.8045 71.2065 39.8045C73.2559 39.8045 75.4051 39.2067 77.6538 38.0112L78.4224 39.5056C77.3976 40.1603 76.2306 40.6584 74.9212 41C73.6118 41.3416 72.3024 41.5124 70.993 41.5124C68.8866 41.5124 67.2071 41 65.9546 39.9753C64.7306 38.922 64.1186 37.3565 64.1186 35.2785V26.5255ZM77.5684 29.7705V26.1839C77.5684 24.2767 76.9849 22.9247 75.8178 22.1276C74.6507 21.3021 73.3556 20.8894 71.9323 20.8894C70.2529 20.8894 68.8439 21.3448 67.7052 22.2557C66.5951 23.1666 66.04 24.5899 66.04 26.5255V30.3683L77.5684 29.7705ZM90.1352 28.6177L95.7713 19.6085H97.9062L91.2453 30.3683L97.8635 41H95.6432L90.1352 32.1189L84.5845 41H82.3215L89.0251 30.3256L82.4069 19.6085H84.5845L90.1352 28.6177Z" fill="#454545"/>
<path d="M0.303571 54.0934H100.025" stroke="#454545" stroke-width="3" stroke-linecap="square"/>
<path d="M0.303571 5.13736H100.025" stroke="#454545" stroke-width="3" stroke-linecap="square"/>
</g>
<defs>
<clipPath id="clip0">
<rect width="102" height="56" fill="white"/>
</clipPath>
</defs>
</svg>
